<?xml version="1.0" encoding="UTF-8"?>
<svg width="1200pt" height="1200pt" version="1.1" viewBox="0 0 1200 1200" xmlns="http://www.w3.org/2000/svg">
 <g>
  <path d="m735.29 0h-560.28v562.5l127.34 95.508 77.594-77.594 96.852 48.406 73.223-48.77 75.816 50.566 96.816-72.613 80.027 80.051 76.859-102.45 145.45 116.41v-362.38zm14.652 85.355 189.71 189.65h-189.71zm120.52 379.02-73.199 97.559-69.926-69.949-103.22 77.387-74.113-49.43-76.812 51.227-103.13-51.602-72.406 72.422-72.66-54.492v-487.49h474.95v275h275.04v222.97z"/>
  <path d="m799.99 739.66-71.82-71.797-78.18 52.094-78.168-52.094-75.012 75-72.684-48.469-98.629 74.004s-148.29-118.04-150.49-119.8v551.4h849.98v-462.5l-127.34-95.508zm175 22.848v387.49h-749.98v-398.26c19.5 15.887 46.633 37.598 84.371 67.766l15.133 12.121 101.32-76.008 77.34 51.539 74.988-75 71.82 47.902 71.82-47.902 78.18 78.203 102.34-102.34z"/>
 </g>
</svg>
